<svg width="1420" height="731" xmlns="http://www.w3.org/2000/svg">
 <!-- Created with Method Draw - http://github.com/duopixel/Method-Draw/ -->
 <g>
  <title>background</title>
  <rect fill="#fff" id="canvas_background" height="733" width="1422" y="-1" x="-1"/>
  <g display="none" overflow="visible" y="0" x="0" height="100%" width="100%" id="canvasGrid">
   <rect fill="url(#gridpattern)" stroke-width="0" y="0" x="0" height="100%" width="100%"/>
  </g>
 </g>
 <g>
  <title>Layer 1</title>
  <path d="m560.5,265.953125c5,0 14.090271,2.36377 45,0c39.343933,-3.008759 68.750671,-11.828232 91,-6c17.758362,4.651825 26.471802,23.683075 29,39c2.448242,14.832611 4.923828,32.392822 -12,48c-11.853516,10.931335 -36.320618,15.696533 -69,11c-47.055969,-6.762665 -101.216064,-28.505737 -140,-67c-25.990875,-25.796783 -26.993317,-52.214432 -24,-73c2.525787,-17.539108 22.752625,-32.340042 68,-40c35.835693,-6.06665 65.011658,-5.748901 89,-5c16.023438,0.500244 24.131226,4.124527 27,9c3.691956,6.274521 2.859497,9.438766 -4,7c-43.054443,-15.307297 -89.070496,-27.758377 -143,-25c-39.153412,2.002609 -70.043365,18.269333 -85,38c-14.089752,18.587067 -18.499908,43.986618 -19,72c-0.499756,27.995544 0.46759,51.870605 8,80c3.199493,11.948364 6.41156,23.404022 10,28c4.351624,5.573456 15.220032,7.644287 31,5c30.253906,-5.069702 83.198303,-35.600555 154,-71c71.20166,-35.599426 142.614624,-62.737167 224,-96c34.783569,-14.216309 43.793823,-19.065231 48,-32c2.783203,-8.558838 -1.286804,-22.455719 -13,-40c-15.104614,-22.6241 -28.458984,-40.375122 -39,-55c-6.666748,-9.24958 -9.923889,-14.382683 -9,-14c3.919678,1.623589 18.197083,14.761147 34,28c22.282898,18.667419 46.195557,41.042801 70,72c17.927979,23.314957 27.46875,36.539764 29,44c0.20105,0.979584 1.175659,4.171036 -1,15c-3.924683,19.534515 -15,46 -27,71c-12,25 -21.667847,48.114136 -28,66c-5.70282,16.108307 -14.575256,32.972961 -25,39c-10.950684,6.331116 -29.371033,7.838715 -63,2c-66.195984,-11.493073 -149.366272,-40.789001 -214,-61c-42.254211,-13.212921 -60.592896,-21.106262 -67,-26c-4.495544,-3.433685 -4,-5 -4,-13l0,-6" id="svg_1" stroke-width="1.5" stroke="#000" fill="none"/>
 </g>
</svg>